<?xml version="1.0" standalone="no"?><!DOCTYPE svg PUBLIC "-//W3C//DTD SVG 1.1//EN" "http://www.w3.org/Graphics/SVG/1.1/DTD/svg11.dtd"><svg t="1738701289810" class="icon" viewBox="0 0 1024 1024" version="1.1" xmlns="http://www.w3.org/2000/svg" p-id="1606" xmlns:xlink="http://www.w3.org/1999/xlink" width="200" height="200"><path d="M785.066667 955.733333H238.933333c-55.022933 0-85.333333-30.293333-85.333333-85.333333V426.666667a17.066667 17.066667 0 0 1 24.32-15.445334 16.913067 16.913067 0 0 1 7.253333-1.621333H836.266667v-153.6a17.066667 17.066667 0 1 1 34.133333 0v614.4c0 55.04-30.293333 85.333333-85.333333 85.333333z m-256-34.133333h256c35.8912 0 51.2-15.3088 51.2-51.2H597.333333a17.066667 17.066667 0 1 1 0-34.133333h238.933334v-51.2h-68.266667a17.066667 17.066667 0 1 1 0-34.133334h68.266667v-51.2h-68.266667a17.066667 17.066667 0 1 1 0-34.133333h68.266667v-51.985067a16.896 16.896 0 0 1-5.12 0.785067H768a17.066667 17.066667 0 1 1 0-34.133333h63.146667c1.774933 0 3.498667 0.273067 5.12 0.785066V529.066667H187.733333v51.2h68.266667a17.066667 17.066667 0 1 1 0 34.133333h-68.266667v51.2h68.266667a17.066667 17.066667 0 1 1 0 34.133333h-68.266667v51.2h68.266667a17.066667 17.066667 0 1 1 0 34.133334h-68.266667v51.2h68.266667a17.066667 17.066667 0 1 1 0 34.133333h-68.266667c0 35.8912 15.3088 51.2 51.2 51.2h85.333334V597.333333a17.066667 17.066667 0 0 1 17.066666-17.066666h341.333334a17.066667 17.066667 0 0 1 17.066666 17.066666v170.666667a17.066667 17.066667 0 0 1-17.066666 17.066667h-153.6v136.533333z m-170.666667 0h136.533333V614.4h-136.533333v307.2z m170.666667-170.666667h136.533333v-136.533333h-136.533333v136.533333zM187.733333 494.933333h648.533334v-51.2H187.733333v51.2z m580.266667-136.533333H256.853333a17.066667 17.066667 0 0 1 0-34.133333H768a17.066667 17.066667 0 1 1 0 34.133333z m-85.333333-85.333333H342.186667a17.066667 17.066667 0 0 1 0-34.133334H682.666667a17.066667 17.066667 0 1 1 0 34.133334z m-84.48-85.333334h-170.666667a17.066667 17.066667 0 0 1 0-34.133333h170.666667a17.066667 17.066667 0 1 1 0 34.133333z" p-id="1607"></path><path d="M938.666667 546.133333a33.9968 33.9968 0 0 1-24.132267-10.001066L512.853333 133.614933 109.4656 536.132267a34.133333 34.133333 0 1 1-48.264533-48.264534l427.52-426.666666a34.133333 34.133333 0 0 1 48.264533 0l425.813333 426.666666A34.133333 34.133333 0 0 1 938.666667 546.133333z" p-id="1608"></path></svg>